# xmcd
#
# Track frame offsets:
#	150
#	11106
#	20878
#	32611
#	46069
#	57656
#	68734
#	78712
#	90661
#	102876
#	115783
#	126844
#	137041
#	148077
#	163856
#
# Disc length: 2413 seconds
# Revision: 0
# Processed by: cddbd v1.5.2PL0 Copyright (c) Steve Scherf et al.
# Submitted via: dBpowerAMP V12.0
#
DISCID=d4096b0f
DTITLE=April Verch - Once A Day
DYEAR=2019
DGENRE=Country
TTITLE0=Once a Day
TTITLE1=You Ain't Woman Enough
TTITLE2=You Must Unload
TTITLE3=Laurel Lee
TTITLE4=You're Not Mine Anymore
TTITLE5=Durham's Bull
TTITLE6=Let's Make a Fair Trade
TTITLE7=I Feel Better
TTITLE8=The French Song
TTITLE9=Fiddling Under the Mistletoe
TTITLE10=Lake Dore Waltz
TTITLE11=Second Fiddle
TTITLE12=A Fool Such As I
TTITLE13=Why Not Confess
TTITLE14=The Lord Knows I'm Drinking
EXTD=
EXTT0=
EXTT1=
EXTT2=
EXTT3=
EXTT4=
EXTT5=
EXTT6=
EXTT7=
EXTT8=
EXTT9=
EXTT10=
EXTT11=
EXTT12=
EXTT13=
EXTT14=
PLAYORDER=
